<?xml version="1.0" encoding="UTF-8" standalone="no"?>
<!DOCTYPE svg PUBLIC "-//W3C//DTD SVG 1.1//EN" "http://www.w3.org/Graphics/SVG/1.1/DTD/svg11.dtd">
<svg width="100%" height="100%" viewBox="0 0 1920 1080" version="1.1" xmlns="http://www.w3.org/2000/svg" xmlns:xlink="http://www.w3.org/1999/xlink" xml:space="preserve" xmlns:serif="http://www.serif.com/" style="fill-rule:evenodd;clip-rule:evenodd;stroke-linejoin:round;stroke-miterlimit:1.5;">
    <g transform="matrix(1.71123,0,0,1.167568,37.647059,-77.059459)">
        <rect x="-22" y="66" width="1122" height="925" style="fill:rgb(24,22,22);stroke:rgb(24,22,22);stroke-width:5.46px;"/>
    </g>
    <g transform="matrix(0.9816,0.190948,-0.190948,0.9816,140.108601,-68.425091)">
        <path d="M-93.768,258.517C-98.158,258.993 -102.108,255.816 -102.584,251.426C-103.06,247.037 -99.883,243.086 -95.493,242.61C221.55,208.217 305.175,257.3 383.321,319.818C416.054,346.005 447.75,374.784 495.991,400.791C669.702,494.442 829.364,470.255 988.129,454.116C1150.218,437.639 1311.365,429.311 1485.231,556.113C1715.49,724.044 1788.17,826.322 1911.286,960.772C1964.635,1019.032 1998.503,1040.582 2025.247,1056.808C2053.363,1073.866 2073.902,1085.424 2099.951,1124.375C2102.406,1128.046 2101.419,1133.018 2097.748,1135.472C2094.078,1137.927 2089.106,1136.94 2086.651,1133.27C2062.391,1096.994 2043.133,1086.374 2016.948,1070.487C1989.391,1053.768 1954.456,1031.608 1899.486,971.577C1777.037,837.855 1704.815,736.062 1475.803,569.041C1305.85,445.092 1148.188,453.928 989.747,470.034C827.982,486.478 665.393,510.295 488.398,414.875C439.156,388.328 406.738,359.042 373.326,332.312C297.131,271.355 215.358,224.983 -93.768,258.517Z" style="fill:rgb(244,48,40);"/>
    </g>
    <g transform="matrix(0.981956,-0.189111,0.189111,0.981956,-110.348733,199.331007)">
        <path d="M2046.922,328.475C2051.258,329.306 2054.103,333.502 2053.272,337.838C2052.44,342.175 2048.244,345.02 2043.908,344.188C1936.253,323.538 1781.001,262.672 1618.057,245.482C1457.233,228.515 1288.747,254.372 1152.172,406.214C1061.746,506.747 1014.35,583.637 970.803,639.697C903.948,725.763 846.188,764.368 661.909,764.368C563.139,764.368 469.321,754.548 383.263,752.128C284.604,749.353 196.265,756.168 122.741,800.095C49.348,843.943 -8.904,924.782 -48.464,1068.933C-54.743,1091.813 -53.578,1101.576 -53.759,1108.675C-53.923,1115.155 -54.854,1120.03 -60.17,1127.517C-62.727,1131.117 -67.725,1131.964 -71.325,1129.408C-74.925,1126.852 -75.772,1121.854 -73.216,1118.254C-69.428,1112.919 -69.723,1109.867 -69.734,1104.483C-69.749,1096.845 -69.688,1085.816 -63.893,1064.698C-22.857,915.168 38.403,831.844 114.535,786.359C190.535,740.953 281.731,733.266 383.713,736.134C469.632,738.551 563.298,748.368 661.909,748.368C838.426,748.368 894.128,712.323 958.167,629.882C1001.884,573.603 1049.497,496.439 1140.276,395.514C1280.879,239.195 1454.169,212.103 1619.735,229.57C1783.182,246.813 1938.936,307.761 2046.922,328.475Z" style="fill:rgb(244,48,40);"/>
    </g>
</svg>
